<svg height="481pt" viewBox="0 0 481 481.85612" width="481pt" xmlns="http://www.w3.org/2000/svg"><path d="m296.429688 112v160c-.027344 8.824219-7.175782 15.972656-16 16h-256c-8.828126-.027344-15.976563-7.175781-16-16v-160c.023437-8.824219 7.171874-15.972656 16-16h64l-28.242188 16.320312 32 55.359376 28.242188-16.238282v32.558594h64v-32.558594l28.238281 16.238282 32-55.359376-28.238281-16.320312h64c8.824218.027344 15.972656 7.175781 16 16zm0 0" fill="#9bfbff"/><path d="m344.429688 8h112c8.835937 0 16 7.164062 16 16v328c0 8.835938-7.164063 16-16 16h-112c-8.839844 0-16-7.164062-16-16v-328c0-8.835938 7.160156-16 16-16zm0 0" fill="#d8d7da"/><path d="m128.429688 288h48v48h-48zm0 0" fill="#d8d7da"/><path d="m88.429688 336c-8.839844 0-16 7.164062-16 16s7.160156 16 16 16h128c8.835937 0 16-7.164062 16-16s-7.164063-16-16-16zm0 0" fill="#57565c"/><path d="m424.429688 192c0 13.253906-10.746094 24-24 24-13.257813 0-24-10.746094-24-24s10.742187-24 24-24c13.253906 0 24 10.746094 24 24zm0 0" fill="#ffc477"/><path d="m360.429688 248h80v32h-80zm0 0" fill="#9bfbff"/><path d="m360.429688 304h80v32h-80zm0 0" fill="#9bfbff"/><path d="m135.949219 387.878906c-10.191407-2.542968-20.851563-2.542968-31.042969 0l-16.476562 4.121094v80l16.476562-4.121094c10.191406-2.542968 20.851562-2.542968 31.042969 0l16.480469 4.121094v-80zm0 0" fill="#d8d7da"/><path d="m168.90625 387.878906-16.476562 4.121094v80l16.476562-4.121094c10.191406-2.542968 20.851562-2.542968 31.042969 0l16.480469 4.121094v-80l-16.480469-4.121094c-10.191407-2.542968-20.851563-2.542968-31.042969 0zm0 0" fill="#c6c5ca"/><path d="m327.386719 463.679688-13.917969 8c-3.667969 2.144531-8.035156 2.734374-12.140625 1.636718-4.101563-1.097656-7.59375-3.789062-9.699219-7.476562l-16-27.679688c-4.410156-7.644531-1.796875-17.417968 5.839844-21.839844l13.917969-8c3.667969-2.144531 8.039062-2.734374 12.140625-1.636718 4.101562 1.097656 7.59375 3.789062 9.699218 7.476562l16 27.679688c4.410157 7.644531 1.796876 17.417968-5.839843 21.839844zm0 0" fill="#ffc477"/><path d="m92.21875 167.710938 28.210938-16.285157v32.574219h64v-32.574219l28.207031 16.285157 32-55.421876-28.207031-16.289062 28.207031-16.289062-32-55.421876-28.207031 16.285157v-32.574219h-64v32.574219l-28.210938-16.285157-32 55.421876 28.210938 16.289062-28.210938 16.289062zm60.210938-103.710938c17.671874 0 32 14.328125 32 32s-14.328126 32-32 32c-17.675782 0-32-14.328125-32-32s14.324218-32 32-32zm0 0" fill="#d8d7da"/><path d="m184.429688 96c0 17.671875-14.328126 32-32 32-17.675782 0-32-14.328125-32-32s14.324218-32 32-32c17.671874 0 32 14.328125 32 32zm0 0" fill="#ffc477"/><path d="m456.429688 0h-112c-13.257813 0-24 10.746094-24 24v328c0 13.253906 10.742187 24 24 24h112c13.253906 0 24-10.746094 24-24v-328c0-13.253906-10.746094-24-24-24zm8 352c0 4.417969-3.582032 8-8 8h-112c-4.417969 0-8-3.582031-8-8v-328c0-4.417969 3.582031-8 8-8h112c4.417968 0 8 3.582031 8 8zm0 0"/><path d="m216.429688 328h-32v-32h96c13.253906 0 24-10.746094 24-24v-160c0-13.253906-10.746094-24-24-24h-16c-4.417969 0-8 3.582031-8 8s3.582031 8 8 8h16c4.417968 0 8 3.582031 8 8v160c0 4.417969-3.582032 8-8 8h-256c-4.417969 0-8-3.582031-8-8v-160c0-4.417969 3.582031-8 8-8h16c4.417968 0 8-3.582031 8-8s-3.582032-8-8-8h-16c-13.257813 0-24 10.746094-24 24v160c0 13.253906 10.742187 24 24 24h96v32h-32c-13.257813 0-24 10.746094-24 24s10.742187 24 24 24h128c13.253906 0 24-10.746094 24-24s-10.746094-24-24-24zm-80-32h32v32h-32zm80 64h-128c-4.417969 0-8-3.582031-8-8s3.582031-8 8-8h128c4.417968 0 8 3.582031 8 8s-3.582032 8-8 8zm0 0"/><path d="m440.429688 40h-80c-4.417969 0-8 3.582031-8 8s3.582031 8 8 8h80c4.417968 0 8-3.582031 8-8s-3.582032-8-8-8zm0 0"/><path d="m440.429688 72h-80c-4.417969 0-8 3.582031-8 8s3.582031 8 8 8h80c4.417968 0 8-3.582031 8-8s-3.582032-8-8-8zm0 0"/><path d="m440.429688 104h-80c-4.417969 0-8 3.582031-8 8s3.582031 8 8 8h80c4.417968 0 8-3.582031 8-8s-3.582032-8-8-8zm0 0"/><path d="m384.429688 128h-16c-4.417969 0-8 3.582031-8 8s3.582031 8 8 8h16c4.417968 0 8-3.582031 8-8s-3.582032-8-8-8zm0 0"/><path d="m432.429688 144c4.417968 0 8-3.582031 8-8s-3.582032-8-8-8h-16c-4.417969 0-8 3.582031-8 8s3.582031 8 8 8zm0 0"/><path d="m368.429688 192c0 17.671875 14.324218 32 32 32 17.671874 0 32-14.328125 32-32s-14.328126-32-32-32c-17.675782 0-32 14.328125-32 32zm48 0c-.019532 5.691406-3.066407 10.941406-8 13.777344v-13.777344c0-4.417969-3.582032-8-8-8-4.417969 0-8 3.582031-8 8v13.777344c-6.734376-3.890625-9.699219-12.054688-7.027344-19.355469s10.203125-11.625 17.855468-10.25c7.652344 1.375 13.210938 8.054687 13.171876 15.828125zm0 0"/><path d="m440.429688 240h-80c-4.417969 0-8 3.582031-8 8v32c0 4.417969 3.582031 8 8 8h80c4.417968 0 8-3.582031 8-8v-32c0-4.417969-3.582032-8-8-8zm-8 32h-64v-16h64zm0 0"/><path d="m440.429688 296h-80c-4.417969 0-8 3.582031-8 8v32c0 4.417969 3.582031 8 8 8h80c4.417968 0 8-3.582031 8-8v-32c0-4.417969-3.582032-8-8-8zm-8 32h-64v-16h64zm0 0"/><path d="m218.363281 384.238281-16.472656-4.109375c-11.464844-2.863281-23.460937-2.863281-34.925781 0l-14.535156 3.632813-14.539063-3.632813c-11.464844-2.863281-23.460937-2.863281-34.925781 0l-16.472656 4.109375c-3.5625.890625-6.0625 4.089844-6.0625 7.761719v80c0 2.460938 1.132812 4.789062 3.074218 6.304688 1.941406 1.515624 4.472656 2.050781 6.859375 1.457031l16.480469-4.121094c8.929688-2.222656 18.269531-2.222656 27.199219 0l16.480469 4.121094h.175781c.058593 0 .21875 0 .328125.039062.460937.109375.929687.175781 1.402344.199219.46875-.039062.933593-.113281 1.390624-.230469h.542969l16.480469-4.121093c8.929688-2.222657 18.269531-2.222657 27.199219 0l16.480469 4.121093c2.386718.582031 4.910156.039063 6.84375-1.476562 1.929687-1.515625 3.058593-3.835938 3.0625-6.292969v-80c-.003907-3.671875-2.503907-6.871094-6.066407-7.761719zm-115.398437 75.890625-6.535156 1.597656v-63.480468l10.398437-2.605469c8.929687-2.222656 18.269531-2.222656 27.199219 0l10.402344 2.605469v63.515625l-6.539063-1.601563c-11.460937-2.875-23.457031-2.886718-34.925781-.03125zm105.464844 1.632813-6.539063-1.601563c-11.464844-2.863281-23.460937-2.863281-34.925781 0l-6.535156 1.601563v-63.515625l10.398437-2.605469c8.929687-2.222656 18.269531-2.222656 27.199219 0l10.402344 2.605469zm0 0"/><path d="m324.140625 410.144531c-3.179687-5.519531-8.425781-9.546875-14.578125-11.199219-6.152344-1.648437-12.707031-.789062-18.222656 2.398438l-13.855469 8c-5.519531 3.179688-9.546875 8.425781-11.199219 14.578125-1.648437 6.152344-.789062 12.707031 2.398438 18.222656l16 27.710938c3.167968 5.53125 8.410156 9.5625 14.570312 11.199219 2.039063.539062 4.144532.808593 6.253906.800781 4.199219.007812 8.324219-1.097657 11.960938-3.199219l13.855469-8c5.519531-3.179688 9.546875-8.425781 11.199219-14.578125 1.648437-6.152344.785156-12.707031-2.398438-18.222656zm2.945313 41.785157c-.542969 2.050781-1.886719 3.800781-3.730469 4.855468l-13.863281 8c-1.835938 1.058594-4.015626 1.347656-6.0625.800782-2.054688-.539063-3.800782-1.882813-4.851563-3.730469l-16-27.71875c-2.203125-3.824219-.898437-8.710938 2.921875-10.921875l8 13.855468c2.222656 3.796876 7.09375 5.082032 10.902344 2.882813s5.128906-7.058594 2.953125-10.882813l-8-13.847656c1.214843-.707031 2.59375-1.078125 4-1.070312.707031 0 1.40625.089844 2.089843.273437 2.050782.535157 3.800782 1.882813 4.847657 3.726563l16 27.71875c1.0625 1.832031 1.347656 4.011718.792969 6.058594zm0 0"/><path d="m53.285156 116.289062 32 55.421876c1.066406 1.835937 2.8125 3.175781 4.863282 3.730468 2.050781.527344 4.226562.242188 6.070312-.800781l16.210938-9.359375v18.71875c0 4.417969 3.582031 8 8 8h64c4.417968 0 8-3.582031 8-8v-18.71875l16.207031 9.359375c1.84375 1.042969 4.019531 1.332031 6.070312.800781 2.050781-.554687 3.796875-1.894531 4.863281-3.730468l32-55.421876c2.210938-3.828124.894532-8.722656-2.933593-10.929687l-16.207031-9.359375 16.207031-9.359375c3.828125-2.207031 5.144531-7.101563 2.933593-10.929687l-32-55.421876c-1.058593-1.839843-2.808593-3.183593-4.859374-3.730468-2.050782-.550782-4.238282-.261719-6.074219.800781l-16.207031 9.359375v-18.71875c0-4.417969-3.582032-8-8-8h-64c-4.417969 0-8 3.582031-8 8v18.71875l-16.210938-9.359375c-1.835938-1.0625-4.023438-1.351563-6.074219-.800781-2.050781.546875-3.800781 1.890625-4.859375 3.730468l-32 55.421876c-2.207031 3.828124-.894531 8.722656 2.933594 10.929687l16.210938 9.359375-16.210938 9.359375c-3.828125 2.207031-5.140625 7.101563-2.933594 10.929687zm39.144532-13.359374c2.472656-1.429688 3.996093-4.070313 3.996093-6.929688s-1.523437-5.5-3.996093-6.929688l-21.28125-12.269531 24-41.601562 21.28125 12.304687c2.472656 1.429688 5.523437 1.429688 8 0 2.472656-1.429687 4-4.070312 4-6.929687v-24.574219h48v24.574219c0 2.859375 1.523437 5.5 4 6.929687 2.472656 1.429688 5.523437 1.429688 8 0l21.277343-12.304687 24 41.601562-21.277343 12.269531c-2.476563 1.429688-4 4.070313-4 6.929688s1.523437 5.5 4 6.929688l21.277343 12.269531-24 41.601562-21.277343-12.304687c-2.476563-1.429688-5.527344-1.429688-8 0-2.476563 1.429687-4 4.070312-4 6.929687v24.574219h-48v-24.574219c0-2.859375-1.527344-5.5-4-6.929687-2.476563-1.429688-5.527344-1.429688-8 0l-21.28125 12.304687-24-41.601562zm0 0"/><path d="m152.429688 136c22.089843 0 40-17.910156 40-40s-17.910157-40-40-40c-22.09375 0-40 17.910156-40 40 .023437 22.082031 17.917968 39.972656 40 40zm0-64c13.253906 0 24 10.746094 24 24s-10.746094 24-24 24c-13.257813 0-24-10.746094-24-24s10.742187-24 24-24zm0 0"/><path d="m120.429688 216h-16c-4.417969 0-8 3.582031-8 8s3.582031 8 8 8h16c4.417968 0 8-3.582031 8-8s-3.582032-8-8-8zm0 0"/><path d="m208.429688 216h-64c-4.417969 0-8 3.582031-8 8s3.582031 8 8 8h64c4.417968 0 8-3.582031 8-8s-3.582032-8-8-8zm0 0"/><path d="m120.429688 248h-16c-4.417969 0-8 3.582031-8 8s3.582031 8 8 8h16c4.417968 0 8-3.582031 8-8s-3.582032-8-8-8zm0 0"/><path d="m208.429688 248h-64c-4.417969 0-8 3.582031-8 8s3.582031 8 8 8h64c4.417968 0 8-3.582031 8-8s-3.582032-8-8-8zm0 0"/></svg>